<svg xmlns="http://www.w3.org/2000/svg" width="1200" height="630" viewBox="0 0 1200 630" role="img" aria-label="Monaco Flow ad creative engine preview">
  <defs>
    <linearGradient id="bg" x1="0" x2="1" y1="0" y2="1">
      <stop offset="0" stop-color="#050506"/>
      <stop offset="0.55" stop-color="#111316"/>
      <stop offset="1" stop-color="#0d4d63"/>
    </linearGradient>
    <linearGradient id="accent" x1="0" x2="1" y1="0" y2="0">
      <stop offset="0" stop-color="#d8b55b"/>
      <stop offset="1" stop-color="#36d7ff"/>
    </linearGradient>
    <pattern id="grain" width="8" height="8" patternUnits="userSpaceOnUse">
      <path d="M0 0h1v1H0zM5 4h1v1H5zM2 7h1v1H2z" fill="#ffffff" opacity="0.18"/>
    </pattern>
  </defs>
  <rect width="1200" height="630" fill="url(#bg)"/>
  <rect width="1200" height="630" fill="url(#grain)" opacity="0.22"/>
  <path d="M84 470V150h74l116 172 116-172h74v320h-84V302L294 435h-40l-86-133v168z" fill="#d8b55b"/>
  <rect x="506" y="154" width="10" height="316" fill="#36d7ff"/>
  <text x="560" y="250" font-family="Syne, sans-serif" font-size="72" font-weight="800" fill="#f5efe3">Monaco Flow</text>
  <text x="562" y="325" font-family="Outfit, sans-serif" font-size="34" font-weight="600" fill="#d9d0c2">Ad creatives built, shipped, and managed weekly.</text>
  <rect x="562" y="378" width="290" height="56" fill="url(#accent)"/>
  <text x="590" y="416" font-family="Outfit, sans-serif" font-size="24" font-weight="800" fill="#050506">BOOK A STRATEGY CALL</text>
</svg>
